/* XPM */
static char *_b6e49fc60d0494daa20c045c7587134pr2vvcphSnPUk5aT[] = {
/* columns rows colors chars-per-pixel */
"40 40 10 1 ",
"  c None",
". c #7A5547",
"X c #795548",
"o c #7E6F49",
"O c #D50000",
"+ c #D60000",
"@ c #D70000",
"# c #D80000",
"$ c #8BC34A",
"% c white",
/* pixels */
"                                        ",
"                                        ",
"                                        ",
"                                        ",
"                                        ",
"                                        ",
"                                        ",
"                                        ",
"                XX                      ",
"               XXXX                     ",
"                XX.X   $$               ",
"                XXXo$$$$$               ",
"                XXX$$$$$$               ",
"                 XX$$$$$                ",
"                 XX$$                   ",
"                 XXXOOO                 ",
"            O#OOOOXOOOOO#               ",
"          ##OOOOOOOOOOOOO#              ",
"          OOOOOOOOOOOOOOOOO             ",
"         OOOOOOOOOOOOOOOOOOO            ",
"         OOOOOOOOOOOOOOOOOOOO           ",
"        OOOOOOOOOOOOOOOOOOO#O           ",
"        OOOOOOOOOOOOOOOOOOO#O           ",
"        #OOOOOOOOOOOOOOOOOOOO           ",
"        #OOOOOOOOOOOOOOOOOOOO           ",
"        OOOOOOOOOOOOOOOOOOOOO           ",
"        OOOOOOOOOOOOOOOOOOO#O           ",
"         OOOOOOOOOOOOOOOOOOOO           ",
"         OOOOOOOOOOOOOOOOOOO            ",
"          OOOOOOOOOOOOOOOOOO            ",
"           OOOOOOOOOOOOOOOO#            ",
"            OOOOOOOOOOOOO#              ",
"               OOOOOOO#OOO              ",
"                                        ",
"                                        ",
"                                        ",
"                                        ",
"                                        ",
"                                        ",
"%                                       "
};
