/* XPM */
static char *e393b5e2bd2d4c9ed2a952f17803c62ceDqDZBi7FOZ0iQzK[] = {
/* columns rows colors chars-per-pixel */
"40 40 2 1 ",
"  c #6E574C",
". c gray62",
/* pixels */
"       .                          . .   ",
"                   .  .     .  .        ",
"                  .                     ",
"  .     . ..      .                     ",
"      ..  .  .              .   .    . .",
"      . .      . ..           .    .    ",
"  . ..    .  .    ..         .. .      .",
" ...  . .. .                 .          ",
"    . . .  .   ..     .          ..     ",
"    .... .   ..        .  .      .      ",
"        .  .   .. .      .              ",
"     .. .  .    .   .... .  .  ...      ",
"      ..  .            .  .        .    ",
".   .  ...                   .          ",
"      . .       .     .  ..     .       ",
"          ...     .          . .        ",
"  .     .  .  .      ...        .  ..   ",
"     .    . .  .          . .           ",
"  .       .        .          . .       ",
" ..       .    .  .         .    .  .   ",
"  ..  .  .   .                  .       ",
"                    .                   ",
"       . .        .    .  .             ",
"                 .          .       .   ",
"      .   .. .       .  ..       ..     ",
"    .     .             . .     ..      ",
"     .  .  .      . .               .   ",
" .         .     .   . .. ..        .   ",
"        .        ..   ..        ... .   ",
"               .  . . .  .     .        ",
"       ..          . .    . .  .   . . .",
"               .         .   .    . .   ",
"                       .       .. .     ",
" ..   .  ... .   .      .      ...      ",
"  .            .     .  . .             ",
"          .             .         .   . ",
"          .    .. .    . . .            ",
"  ...          .      .  .    .         ",
" .    .                              .  ",
"                   .        .           "
};
