/* XPM */
static char *c1934810e32747c0e0b1efd0241f699eo6nWfhSGlheeqXDU[] = {
/* columns rows colors chars-per-pixel */
"40 40 6 1 ",
"  c None",
". c black",
"X c #090936",
"o c #795548",
"O c yellow",
"+ c #EDC5C5",
/* pixels */
"                                        ",
"                                        ",
"                                        ",
"                                        ",
"                                        ",
"                                        ",
"                                        ",
"                                        ",
"                                        ",
"               OOOOOOO                  ",
"               O  .  O                  ",
"               .O.O.O.                  ",
"            ooo..OOO..                  ",
"          oooooooooooo                  ",
"          oooooooooooo                  ",
"          oooooo++++++                  ",
"         oooooo+++++++                  ",
"         ooooo++..+..+                  ",
"       ooooooo++..+..+                  ",
"       ooooooo++++++++                  ",
"       ooooooo++.+++.+                  ",
"       ooooooo++.....+                  ",
"              ++++++++                  ",
"              ++++++++                  ",
"                 ++                     ",
"            ++XOXX+XOX++                ",
"          ++++XOXX+XOX+++               ",
"         +++++XOXXXXOX++++              ",
"         ++++XXOXXXXOX +++              ",
"        ++++ XOOXXXXOOX+++              ",
"        +++ XOOXXXXXXOX++++             ",
"        +++ OOXXXXXXXOO+++++            ",
"        +++ XXXXOOOOXXOX +++            ",
"        ++ XXXXOOXXOOXXX  ++            ",
"           XXOOXXXXXOOXXX               ",
"          XXOOXXXXXXXOOXX               ",
"          XXOXXXXXXXXXOXX               ",
"         XX  ++++ ++++                  ",
"             ++++ ++++                  ",
"             ++++ ++++                  "
};
