/* XPM */
static char *_02a01988b484184d1f3c902a111bad7IYWgECCMITbZ2LY2[] = {
/* columns rows colors chars-per-pixel */
"40 40 130 2 ",
"   c #010101",
".  c gray1",
"X  c #020507",
"o  c #070605",
"O  c #0A0807",
"+  c #06070E",
"@  c #04090D",
"#  c #0B0B0B",
"$  c #0D0B0A",
"%  c gray6",
"&  c #070913",
"*  c #080913",
"=  c #090A16",
"-  c #09121A",
";  c #111111",
":  c gray8",
">  c #231D19",
",  c #0F283A",
"<  c #2E2622",
"1  c #282428",
"2  c #352C27",
"3  c #3D322D",
"4  c #50433B",
"5  c #56473E",
"6  c #171F40",
"7  c #1C3A53",
"8  c #2C3471",
"9  c #1F4766",
"0  c #594A41",
"q  c #5E4E45",
"w  c #524C48",
"e  c #5C5551",
"r  c #5A5A5A",
"t  c #6A574D",
"y  c #6A584E",
"u  c #6B584E",
"i  c #6C594E",
"p  c #6B5950",
"a  c #6D5B52",
"s  c #6E5C53",
"d  c #6F5E55",
"f  c #715B51",
"g  c #705F57",
"h  c #6F625A",
"j  c #706057",
"k  c #706058",
"l  c #73645C",
"z  c #75665D",
"x  c #676666",
"c  c #6B6A6A",
"v  c #726862",
"b  c #776962",
"n  c #786B62",
"m  c #796B62",
"M  c #786B64",
"N  c #796D65",
"B  c #7A6E68",
"V  c #7B6F68",
"C  c #7C7069",
"Z  c #7E736D",
"A  c #767270",
"S  c gray47",
"D  c #817770",
"F  c #827872",
"G  c #837A76",
"H  c #847B75",
"J  c #857C76",
"K  c #857D78",
"L  c #867E79",
"P  c #304285",
"I  c #32488E",
"U  c #2B5F87",
"Y  c #3B4698",
"T  c #3D4B9F",
"R  c #3470A1",
"E  c #414FAA",
"W  c #434FAC",
"Q  c #4251AD",
"!  c #4450AF",
"~  c #4451AF",
"^  c #4056AF",
"/  c #4351B0",
"(  c #4354B1",
")  c #4354B2",
"_  c #415AB5",
"`  c #415BB7",
"'  c #406BC1",
"]  c #416EC4",
"[  c #416FC5",
"{  c #4B94C4",
"}  c #4B95C4",
"|  c #4C96C5",
" . c #4C98C7",
".. c #4691D0",
"X. c #4996D7",
"o. c #4997D8",
"O. c #4B9ADD",
"+. c #55ADCC",
"@. c #56B0CE",
"#. c #58B4CF",
"$. c #59B6D0",
"%. c #59B7D4",
"&. c #5AB9D1",
"*. c #57B3DB",
"=. c #4D9EE2",
"-. c #50A4EA",
";. c #50A4EB",
":. c #50A5EE",
">. c #51A6EE",
",. c #52A7EE",
"<. c #8B8581",
"1. c #8C8480",
"2. c #8C8582",
"3. c #8C8683",
"4. c #8E8884",
"5. c gray54",
"6. c #8C8B8B",
"7. c #908B87",
"8. c #918D8A",
"9. c #918D8B",
"0. c #938F8C",
"q. c #979593",
"w. c #979594",
"e. c #989594",
"r. c #989797",
"t. c #9B9897",
"y. c #9A9998",
"u. c #9B9B9B",
"i. c #9D9C9C",
"p. c gray62",
/* pixels */
"y y y y y i t F y y y y y y y s s s y N y i s y y y y y y g t t V h p.s w.y y y ",
"y y y y y y y y <.w.i y Z i s s y J i a y y 1.k y y t z m y J D y y t y y y y y ",
"y y y y N y y y D Z p.p.p.y y N N y y H y N z C y y y y y y t G J y G b G y y y ",
"y y q.y N y y y b p.y y t y y y y y H y p s y a y y y y y y y t y y y y y y y y ",
"y y F y y y j p.p.p.y y y y y y y y t H 3.L y a y s y y y y y L y y y y y y y p.",
"y y 1.y y p.p.y y y y y y y y J y y 8.t 1.t y y y y y y y y y y y y y y y y y y ",
"y y y y y p.y y y p.p.y y y y N y y y L p l y y y N y y y y C 8.y y 0.y y y y w.",
"y y y y p.y y y y p.p.y y y y y y 3.y y y y y y y y y y y H Z y y t t y s y y y ",
"y 8.y y y p.p.y y y y p.y M y G 8.y i y g C F y k s y y J 8.y y p t t y y V y y ",
"y y y y b p.y y y y y L t 1.p.w.y.F y 7.t.t y y y s y y y t y y 0.t p t t h y p ",
"t t y y y y y y y y y p.y V v h 4.p.S p.p.p.4 4 e.A i i H i s y L 1.H 8.t p k t ",
"y p.y y y p.y V <.y y p.< 3 o     =     * *   # p.# e p.y.e.f y H L L y y y z t ",
"y p.y y p.y p.p.y 2 w 1       +   =       +     +     p.p.p.V 0.y y y y p y J y ",
"t u.y y p.y y p.r   &       + P I Q , P T E X & =     = p.p.3 V V y y y a y y y ",
"q.y y y p.y S =     = =   U Q _ / _ =.' _ ! =./ _ @ @   &   O 3 S e.t Z C y k i ",
"y y y y p.4         W Q ^ +.} / / @._ _ ,.( ,./ _ _ =.= @       5 y.y H k y y y ",
"y y y y t     =   T R ` ` +.| ! } &./ / ! ) [ ) ) ) ,./ O.= @   > p.q F v y y y ",
"p.y y y       Q 9 / ,.[ | _ ! !  .$./ W ! ! ^ | [ ) ` Q ` ) o.X   & 0 3.i y F y ",
"t t t i     , , [ ` ,.,.$.W / / [ ` ` ` ` ` ! #.! ! ` Q Q _ ,...&   p.p.t t 4.y ",
"u.p.p.$     X.../ ,.,.` +.! ) _ ` / ` / ) ! ! #.! ! #.~ / [ ,.,._     p.p.i p.y ",
"p.y p.      o.,./ ,.[ / | ! ) _ [ ` ,.) ! ! ) ! / / &.` ( ( [ ,.O.X     4 y p.y ",
"t.y p.      O._ / ` [ ! | ` ! ) ,.` ) ! ! ,.,.! ` ` $./ / / / ` ;.,     4 y p.y ",
"p.y p.      o.` ! ) ,./ _ ,.^ ` ) ) / ! ` ` ` ! ` [ &.+./ ) / / ,.X.    = p.p.y ",
"y.y p.      9 [ ! ! ) ! [ ,.) ! / / ! ` ,.) ` ! / [ %.+.` ` ) W ,.o.Y     p.y y ",
"e.y t       _ / ! ! ! ! ) *.) Q ! ! / ` ,./ ` ! / [ ,./ ` | [ / ,.o.8     t y y ",
"y y t       / _ ! ! ` ` ` *.,.) ) ) ` [ ,.! ! / _ ) ,.` ) $.%./ / _ Q     y y y ",
"y y y       _ ,.! ! ` / [ ,.[ ! ! ` / ,.[ / W / ` ` ,.,.[ +.&./ ! ! E &   y y y ",
"y p.y $     , ,.! ! ` !  .,.[ } ! ` ! ! / | [ / / ` ,.[ ` ,.%./ ! !       y y y ",
"y y y y #   , ,.` ) ,.! | ! ! *.! ,.) ) / | ,.[ ` / _ [ ` ,.,./ / _       y <.t ",
"y y y y 4     9 ,.) ,./ Q  .! ` ) ,.` ,.,.,.[ ,.,.` / [ %.*.` ) _ ..      y y.t ",
"y y y y 4       U ` [ / ! } ) ` [ ,.! ) ` / / ` ) ` / ) @.*.` ` ..        p.p.p.",
"y y y t t 4       U [ ! ! _ ` ,.,.,.~ ~ / / ) ` ) ` +. .[ ,.` [ ..      : 1.p.y ",
"y y y y y 4         9 _ ( / / [ ` ,.` ` / [ `  .[ %.%.*.[ _ / :.-       c <.y.y ",
"y p.p.y y y S         , _ _ ( ( _ _ [ ,.` ( / } / @.,.` ( _ 6 -       x c w.p.y ",
"y w.p.y y y y 3             P _ ,._ [ [ ,._ ` [ ` [ ,.` _ :.7       t.w.y w.q.y ",
"y y <.y w.w.y y 4               , X.-.[ ,.;.,.:.>.>.>.>...        : u.6.y y p.y ",
"y y y y w.y.<.w.w.4 %                                           ; 5.# y e.1.y y ",
"y y p.p.p.<.<.w.p.<.t 4 O                                       # y y y p.<.y y ",
"y p.y y y y p.y q.<.y y y 4 O           + + &           $ y y y y y w.<.q.p.y y ",
"y y y y y y y y t t y y y y y t t 4 O         # y y y y p.t y y y y w.<.y y y y "
};
