/* XPM */
static char *d1470afc4af54753c34695546435fc35kn6C92qUgXI0HgHg[] = {
/* columns rows colors chars-per-pixel */
"40 40 88 1 ",
"  c #010101",
". c #020202",
"X c #080605",
"o c #0A0807",
"O c #0B0B0B",
"+ c gray6",
"@ c gray8",
"# c #00293C",
"$ c #302621",
"% c #372B26",
"& c #3F322C",
"* c #53423A",
"= c #293475",
"- c #2D3777",
"; c #004869",
": c gray27",
"> c #5A5A5A",
", c #6E574C",
"< c #676666",
"1 c #6B6A6A",
"2 c gray47",
"3 c #29428A",
"4 c #3F4685",
"5 c #294893",
"6 c #37469E",
"7 c #38479F",
"8 c #00608B",
"9 c #374BA5",
"0 c #3948A0",
"q c #3C4DAD",
"w c #3E4FB2",
"e c #3756B5",
"r c #3C51B3",
"t c #3F50B5",
"y c #3E51B6",
"u c #3C54B7",
"i c #3C54B8",
"p c #375ABB",
"a c #375BBC",
"s c #375BBD",
"d c #385CBD",
"f c #0072A5",
"g c #464B89",
"h c #4E599A",
"j c #505390",
"k c #424EA5",
"l c #404FAF",
"z c #4551A7",
"x c #4251A9",
"c c #4551A8",
"v c #4050AF",
"b c #4655AD",
"n c #4150B0",
"m c #4050B3",
"M c #4152B5",
"N c #4354B4",
"B c #4B5AB2",
"V c #616CAD",
"C c #2A6CC7",
"Z c #2A6FCA",
"A c #2A70CB",
"S c #1697C9",
"D c #1598CA",
"F c #139ACC",
"G c #0393D6",
"H c #0398DD",
"J c #0399DE",
"K c #07B0D1",
"L c #05B3D2",
"P c #03B7D2",
"I c #01BBD3",
"U c #00BBD5",
"Y c #01B6DF",
"T c #00BAD8",
"R c #039CE3",
"E c #03A1EA",
"W c #03A2EA",
"Q c #03A7F2",
"! c #03A8F4",
"~ c #03A9F4",
"^ c #8D8581",
"/ c gray54",
"( c #828399",
") c #979797",
"_ c #989594",
"` c #9C9B9A",
"' c #9D9C9C",
"] c gray62",
/* pixels */
",,,,,,,],,,,^,,,,,,,,,,,,,,,,,,,,,],],,,",
",,,,,,,,^_,,^,,,,,,],,]_,^__]__],,,,,^,,",
",,,,^,,,^_,,,,,,,c],,,^_,(____]_,,___],,",
",,],^,,,],]],,,,,n],,j,jcj,,,,_]_,___`,,",
",,],,,]],jB,,]j,,M,,,c,jn,,,]j,_]^_,,],]",
",,^,,,],]jnc,,r],M],,n,,cj,,,c],,^]],,,,",
",,],]]c,,,VM,]M,,k]],n,,,j,,,V],B,_,,,,]",
",]]],,M,]],n,jk,j,,,,j,,jcc,,V,,z,,,^,,,",
",_,,],B,],,M,j,VM,,kj,],nwcccj,,,V],`),,",
",`,,]]V],]jz,]]jMj,ln,,]Mc]nnj,cmN,j_`,,",
",`,,,,nj],j],,*2Mw2wrk**w2,wnt,cMz,z,_^,",
",],,j]Ml],,h$&XoOwXX00OO-O&rVM,BmV,m,,`,",
",],,n,BB,%:w  .= w  .=  = .q&w,xjl,B,,_,",
"]`,,M,,b> 0w  =35w#39w#9q  w0k&,,z,j,,,,",
"__,,v,2M  wM 8rsMpEZsmErs;;r0 O&2j,nj,,,",
"',,,M*Xm  wreKSwwLsp!i!wssRw;=  &r,nn,,,",
"],],kX w.9fssKFtSUmmtiZiii!tRw;. w*BB,,,",
"',,,-0 w;t!ZSsttFUttwMiFZidtdiR#96*j,,j,",
"',],-w##Zs!!LwMtZssssdmUmMdwws!Gw 7k,,z,",
"']],X6HGi!!sKtiddrsiittKmiKiMZ!Qp 6w],n,",
"',V2- J!t!ZiSmidZd!iMtitrMTdiiZ!R# w*,n,",
"',cXg6RstdZmFdmi!sitt!!issUwtttdQ# w*,n,",
"`,nO 6RdMw!id!idiittdddtsZTKtitt!J0r0jc,",
"',z-0 ;ZtiiMZ!ittttd!idtiATKdditQH06wj,,",
"_,,-w=srttttiYitttts!istmZ!isSZm!R==0,,,",
",,,X7=rsttdssY!ttidZ!tttdi!siUTMwsmq ,,,",
",,,*  s!ttstZ!ZMidi!ZMMtss!!ZKTmwtw6 ,,,",
",],*  #!tidtF!ZFtdtttFZtis!Zd!TMMw  .,,,",
",,,,X #!di!tFMiYt!iitF!ZdMsAd!!tMs   ,^,",
",,,,*  ;!i!twFMdi!d!!!Z!!diZTYdidG   ,`,",
",,,,*   8dZtmSidA!tiswisidtiLYddG    ]]]",
",,,,,*  .8Attpd!!!ttiwisisKFZ!dZG   @^],",
",,,,,*    ;srmmZs!psrAsFATTYAarQG   1^`,",
",]],,,2    #ssiissA!diMDiL!sipdG   <1_],",
",_],,,,&      3s!sZZ!ssAsA!ssQWG )`),__,",
",,^,__,,*      .#H!ZQQ!!!!!!G   /]`/,,],",
",,,,_'^__*+                =   X//O,_^,,",
",,]]]^^_]^,*X       ===    gX   O,,,`^,,",
",],,,,],_^,,,*X     ==gX    O,,,,,_^_],,",
",,,,,,,,,,,,,,,,,*X    O,,,,],,,,,_^,,,,"
};
