/* XPM */
static char *_85b9fcd6ce442f4957b3e7ab4fb3cfb6YJZMTNlzid7kaib[] = {
/* columns rows colors chars-per-pixel */
"40 40 85 1 ",
"  c None",
". c #7A5447",
"X c #7A5547",
"o c #775449",
"O c #795448",
"+ c #785548",
"@ c #795548",
"# c #785449",
"$ c #795449",
"% c #785549",
"& c #795549",
"* c #7A5448",
"= c #7A5548",
"- c #795648",
"; c #785649",
": c #795649",
"> c #795749",
", c #7B5648",
"< c #785849",
"1 c #795949",
"2 c #795E49",
"3 c #795E4A",
"4 c #7A5F4A",
"5 c #7A6149",
"6 c #7A6349",
"7 c #7B6349",
"8 c #7A624A",
"9 c #7A634A",
"0 c #7C6348",
"q c #7A644A",
"w c #7B664A",
"e c #7C6B4A",
"r c #7B6D4A",
"t c #7C6E4A",
"y c #7C6F4A",
"u c #7D724A",
"i c #7F7C49",
"p c #828449",
"a c #828749",
"s c #81854A",
"d c #828D4A",
"f c #839248",
"g c #859C49",
"h c #859D49",
"j c #849C4A",
"k c #859D4A",
"l c #859F4A",
"z c #86A149",
"x c #86A249",
"c c #85A04A",
"v c #85A14A",
"b c #86A14A",
"n c #85A24A",
"m c #86A34A",
"M c #86A54A",
"N c #87A54A",
"B c #86A64A",
"V c #87AA4A",
"C c #87AD4A",
"Z c #88AE4A",
"A c #89B54A",
"S c #89B74A",
"D c #8AB84B",
"F c #8BBB4A",
"G c #8ABC4B",
"H c #8BBD4B",
"J c #8ABE4A",
"K c #8BBE4A",
"L c #8ABF4A",
"P c #8ABE4B",
"I c #8BC04A",
"U c #8BC14A",
"Y c #8BC24A",
"T c #8BC34A",
"R c #8AC24B",
"E c #8BC24B",
"W c #8BC34B",
"Q c #8CC24A",
"! c #8CC34A",
"~ c #8CC24B",
"^ c #8CC34B",
"/ c #8BC24C",
"( c #8CC24C",
") c #8CC34C",
"_ c white",
/* pixels */
"           TT TT TT       T             ",
"         TTTT TTT/TT TT(TTTTT           ",
"         TTT/T TTTTT TT/TTTT/           ",
"       TQ    TTTTTTTTTTTQTTQT           ",
"     TTTT  //TTTTTTTTTiTTTTTTT          ",
"     T/    TTTTTTTTTTciTTTTTTT/Q        ",
"    /TT T TTTTTTVTTTT;TTTTTTT/(Q        ",
"     T/TTTTTTTTTTTTTTTTTTTTTTTTTTQ      ",
"     TTTTTTTTTTTT/TTTTTTTTTTsTTTTT      ",
"    /  TTTCTTTTT5TTTTTTT/TTTVTTTTT      ",
"   T  TTTTdTTTT/TTTTTTTTTsTTTT/ TT      ",
"     TTTTTTTTTTTTTTTQPTTTiTTTTTTT/      ",
"   TTQ/TTTTTTTTTTTTTZTTTTTiTTTTT T      ",
"   QQT  T TTTTTTTTTTZTTTTT1TTTTTTQ      ",
"     TTQTTTTiTTTTTTTTTTKTTrTTTTTTT      ",
"     TBQTTTTTTTQTATTTTTTT/TTTTTT  TT    ",
"      iTTTTTTTTTQPQTiT(TTTTTTTTTT/TT    ",
"      TTTTTTTTTTTK/lw((/TTTTPTTTTT/T    ",
"        TTTTTToTATT;5TTTTTTTsTTTTQ      ",
"  TT   T  TTTTwTTKTrTTTTTTTTTTTTT/      ",
"  TT    TTTTTTTTTgATTTVTTTTTT(/TT       ",
"      T/TTTTTTVTTTTTTTlTTTTTTTT         ",
"      /TT1TTTT.TT.;TTTTTTTTTTQTTT       ",
"    TTT  ;;TTTowT;gQTTTTTTTTQTTT T      ",
"    TTTTTTlB^Tw5B5lATTTTTTTTTTTTTQTT    ",
"      TTQQcc3TT^*500;TTTTFee;TTTTTTT    ",
"        ^^Qr5ccc;gAlgAQQPT33; T         ",
"          QQT53FlAAlAAAN5u/TTQ/TT       ",
"               ccAAgAcsN3T/TTQTTT       ",
"          ,;   w.gjgp5; fQTT    TT      ",
"        ;;;.;  ;,oo..;*;                ",
"         ;.;;; .;...;.;;;               ",
"         ;.; ;;.;;..*;.o;               ",
"          ;.;.;;..;;o.;**               ",
"           ;.;.;.;.;.;.;;               ",
"            ;**,;;..;.;..               ",
"             .;.;;*o*;;*o               ",
"             ;;;.;;*...;o               ",
"              ;.;.;..;;*;               ",
"_              ;.;;.;.,;;               "
};
